<svg xmlns="http://www.w3.org/2000/svg" viewBox="0 0 720 540"><rect width="720" height="540" fill="#252d27"/><g transform="translate(40 55)" font-family="Arial"><rect width="640" height="450" rx="6" fill="#f0f1e9"/><path d="M130 0V450" stroke="#d8ddd0"/><text x="20" y="35" fill="#35422d" font-size="21" font-weight="bold">focus.</text><rect x="12" y="70" width="106" height="30" rx="4" fill="#dce3d1"/><g fill="#68745e" font-size="10"><text x="27" y="89">◈  Overview</text><text x="27" y="130">▣  My projects</text><text x="27" y="170">✓  My tasks</text><text x="27" y="210">▦  Calendar</text><text x="25" y="415">⚙  Settings</text><text x="156" y="38">YOUR WORKSPACE</text></g><circle cx="604" cy="32" r="12" fill="#9cab86"/><text x="158" y="85" font-size="24" fill="#303c29">Make room for good work.</text><text x="158" y="108" fill="#87917d" font-size="10">A little focus goes a long way.</text><g fill="#e2e7d9"><rect x="158" y="132" width="140" height="70" rx="5"/><rect x="312" y="132" width="140" height="70" rx="5"/><rect x="466" y="132" width="148" height="70" rx="5"/></g><g fill="#6e7b61" font-size="10"><text x="172" y="152">To do</text><text x="326" y="152">In progress</text><text x="480" y="152">Completed</text></g><g fill="#36482b" font-size="25"><text x="172" y="186">08</text><text x="326" y="186">03</text><text x="480" y="186">12</text></g><text x="159" y="239" font-size="14" fill="#35422d">Your priorities</text><g fill="white"><rect x="158" y="257" width="456" height="42" rx="4"/><rect x="158" y="309" width="456" height="42" rx="4"/><rect x="158" y="361" width="456" height="42" rx="4"/></g><g fill="none" stroke="#a6b597"><rect x="175" y="271" width="12" height="12" rx="3"/><rect x="175" y="324" width="12" height="12" rx="3"/><rect x="175" y="375" width="12" height="12" rx="3"/></g><g font-size="10" fill="#65745a"><text x="202" y="280">Explore a new direction</text><text x="202" y="332">Build the component library</text><text x="202" y="384">Refine the little details</text><text x="548" y="280">Design</text><text x="548" y="332">Develop</text><text x="548" y="384">Review</text></g></g></svg>
